# Blender v2.79 (sub 0) OBJ File: ''
# www.blender.org
mtllib danbo_baru.mtl
o Cube_Cube.001
v 4.073421 2.275394 2.735108
v 4.104780 3.511405 2.703748
v 4.073421 2.275394 0.735108
v 4.104780 3.511405 0.766467
v 6.073421 2.275394 2.735108
v 6.042061 3.511405 2.703748
v 6.073421 2.275394 0.735108
v 6.042061 3.511405 0.766467
v 4.073421 3.453013 2.735108
v 4.073421 3.453013 0.735108
v 6.073421 3.453013 0.735108
v 6.073421 3.453013 2.735108
v 4.086185 3.482209 2.722343
v 4.086185 3.482209 0.747872
v 6.060656 3.482209 0.747872
v 6.060656 3.482209 2.722343
v 4.350392 1.051719 2.455916
v 4.350392 2.541434 2.455916
v 4.350392 1.051719 1.014299
v 4.350392 2.541434 1.014299
v 5.792009 1.051719 2.455916
v 5.792009 2.541434 2.455916
v 5.792009 1.051719 1.014299
v 5.792009 2.541434 1.014299
v 4.350392 1.091423 2.455916
v 4.350392 1.091423 1.014299
v 5.792009 1.091423 1.014299
v 5.792009 1.091423 2.455916
v 4.374309 0.998644 1.038215
v 4.374309 0.998644 2.432000
v 5.768093 0.998644 1.038215
v 5.768093 0.998644 2.432000
v 4.203948 0.806584 2.555816
v 5.917306 0.800478 2.555816
v 5.917306 0.800647 0.880090
v 4.203948 0.806754 0.880090
v 4.435529 1.051719 1.014299
v 4.435529 2.541434 1.014299
v 4.435529 1.051719 2.455916
v 4.435529 2.541434 2.455916
v 4.435529 1.091423 2.455916
v 4.435529 1.091423 1.014299
v 4.456621 0.998644 1.038215
v 4.456621 0.998644 2.432000
v 4.305133 0.806393 0.880090
v 4.305133 0.806223 2.555816
v 5.702584 2.541434 1.014299
v 5.702584 1.051719 2.455916
v 5.702584 1.091423 1.014299
v 5.681635 0.998644 2.432000
v 5.811024 0.800857 2.555816
v 5.702584 1.051719 1.014299
v 5.702584 2.541434 2.455916
v 5.702584 1.091423 2.455916
v 5.681635 0.998644 1.038215
v 5.811024 0.801026 0.880090
v 4.350392 1.051719 1.146024
v 4.350392 1.051719 2.331380
v 4.350392 2.541434 2.331380
v 4.350392 2.541434 1.146024
v 5.792009 1.051719 2.331380
v 5.792009 1.051719 1.146024
v 5.792009 2.541434 1.146024
v 5.792009 2.541434 2.331380
v 5.792009 1.091423 1.146024
v 5.792009 1.091423 2.331380
v 4.350392 1.091423 2.331380
v 4.350392 1.091423 1.146024
v 4.374309 0.998644 1.165689
v 4.374309 0.998644 2.311715
v 5.768093 0.998644 2.311715
v 5.768093 0.998644 1.165689
v 5.917306 0.800534 2.385311
v 5.917306 0.800591 1.007461
v 4.203948 0.806697 1.007462
v 4.203948 0.806641 2.385311
v 4.456621 0.998644 1.165689
v 4.456621 0.998644 2.311715
v 4.435529 2.541434 1.146024
v 4.435529 2.541434 2.331380
v 5.702584 2.541434 1.146024
v 5.702584 2.541434 2.331380
v 5.681635 0.998644 1.165689
v 5.681635 0.998644 2.311715
v 5.092607 1.051719 1.014299
v 5.042775 1.051719 1.014299
v 5.092607 2.541434 2.455916
v 5.042775 2.541434 2.455916
v 5.092607 1.091423 2.455916
v 5.042775 1.091423 2.455916
v 5.091789 0.998644 1.038215
v 5.043610 0.998644 1.038215
v 5.096009 0.802815 0.880090
v 5.036783 0.804604 0.880090
v 5.042775 2.541434 1.014299
v 5.092607 2.541434 1.014299
v 5.042775 1.051719 2.455916
v 5.092607 1.051719 2.455916
v 5.042775 1.091423 1.014299
v 5.092607 1.091423 1.014299
v 5.043610 0.998644 2.432000
v 5.091789 0.998644 2.432000
v 5.036783 0.804434 2.555816
v 5.096009 0.802645 2.555816
v 5.091789 0.998644 1.165689
v 5.043610 0.998644 1.165689
v 5.091789 0.998644 2.311715
v 5.043610 0.998644 2.311715
v 5.042775 2.541434 1.146024
v 5.092607 2.541434 1.146024
v 5.042775 2.541434 2.331380
v 5.092607 2.541434 2.331380
v 4.456621 -0.054945 1.165689
v 4.456621 -0.054945 2.311715
v 5.681635 -0.054945 1.165689
v 5.681635 -0.054945 2.311715
v 5.043610 -0.054945 1.165689
v 5.043610 -0.054945 2.311715
v 5.091789 -0.054945 1.165689
v 5.091789 -0.054945 2.311715
v 5.986015 1.149748 2.071274
v 5.817888 2.315444 2.071274
v 5.986015 1.149748 1.398942
v 5.817888 2.315444 1.398942
v 6.217309 1.186787 2.071274
v 6.049182 2.352482 2.071274
v 6.217309 1.186787 1.398942
v 6.049182 2.352482 1.398942
v 3.734609 1.275600 2.071274
v 4.131890 2.377866 2.071274
v 3.734609 1.275600 1.398942
v 4.131890 2.377866 1.398942
v 3.953318 1.188079 2.071274
v 4.350598 2.290345 2.071274
v 3.953318 1.188079 1.398942
v 4.350598 2.290345 1.398942
vt 0.555413 0.005938
vt 0.561479 0.012258
vt 0.569030 0.220972
vt 0.562910 0.226859
vt 0.778124 0.220396
vt 0.784190 0.226717
vt 0.770574 0.011682
vt 0.776694 0.005795
vt 0.774519 0.669122
vt 0.774519 0.883375
vt 0.549642 0.883375
vt 0.549642 0.669122
vt 0.774519 0.454466
vt 0.774519 0.668719
vt 0.549642 0.668719
vt 0.549642 0.454466
vt 0.557363 0.454063
vt 0.557363 0.232453
vt 0.789962 0.232453
vt 0.789962 0.454063
vt 0.774922 0.668719
vt 0.774922 0.454466
vt 0.999798 0.454466
vt 0.999798 0.668719
vt 0.782240 0.000202
vt 0.549642 0.000202
vt 0.375648 0.377049
vt 0.357837 0.573021
vt 0.348463 0.564988
vt 0.363013 0.380293
vt 0.257635 0.375429
vt 0.230437 0.554891
vt 0.223789 0.550492
vt 0.251144 0.373576
vt 0.126142 0.245523
vt 0.055348 0.741164
vt 0.027461 0.745201
vt 0.102924 0.214492
vt 0.549239 0.208010
vt 0.549239 0.802777
vt 0.528724 0.759000
vt 0.525491 0.244438
vt 0.410279 0.232126
vt 0.413151 0.241872
vt 0.384392 0.246440
vt 0.379287 0.242651
vt 0.492390 0.776011
vt 0.502988 0.757006
vt 0.512646 0.207698
vt 0.504070 0.233021
vt 0.135332 0.240451
vt 0.124432 0.205483
vt 0.259218 0.370994
vt 0.252917 0.368080
vt 0.372083 0.371378
vt 0.360775 0.374298
vt 0.254646 0.246661
vt 0.247930 0.248519
vt 0.244922 0.238848
vt 0.251903 0.235233
vt 0.271115 0.344160
vt 0.267121 0.342224
vt 0.275059 0.330405
vt 0.278256 0.330328
vt 0.354709 0.342553
vt 0.349440 0.345709
vt 0.341434 0.332047
vt 0.343316 0.325814
vt 0.212086 0.246208
vt 0.215352 0.228137
vt 0.339531 0.035204
vt 0.326446 0.161677
vt 0.353931 0.376655
vt 0.345179 0.347332
vt 0.337566 0.331558
vt 0.381027 0.254377
vt 0.375275 0.251766
vt 0.354849 0.381912
vt 0.349213 0.005487
vt 0.280183 0.886305
vt 0.284712 0.942701
vt 0.320239 0.219452
vt 0.935628 0.000202
vt 0.935628 0.264013
vt 0.867350 0.264013
vt 0.867350 0.000202
vt 0.341978 0.566868
vt 0.000202 0.786164
vt 0.079850 0.167691
vt 0.219962 0.217121
vt 0.064150 0.765454
vt 0.118568 0.175131
vt 0.303734 0.378386
vt 0.304846 0.350307
vt 0.306085 0.330177
vt 0.314568 0.231809
vt 0.314598 0.219359
vt 0.303426 0.383253
vt 0.283186 0.574484
vt 0.278314 0.324550
vt 0.306071 0.322989
vt 0.318152 0.232177
vt 0.331769 0.296661
vt 0.330295 0.297554
vt 0.221812 0.566314
vt 0.212223 0.558520
vt 0.287598 0.575028
vt 0.348538 0.580003
vt 0.287115 0.588792
vt 0.338152 0.324812
vt 0.485548 0.265187
vt 0.413960 0.258794
vt 0.241956 0.363882
vt 0.262603 0.338916
vt 0.273780 0.325470
vt 0.493222 0.272346
vt 0.238387 0.369857
vt 0.280833 0.588609
vt 0.265178 0.885430
vt 0.309355 0.322947
vt 0.330668 0.299811
vt 0.308478 0.330179
vt 0.306941 0.383279
vt 0.307132 0.378527
vt 0.308199 0.350420
vt 0.858950 0.000202
vt 0.858950 0.264013
vt 0.790365 0.264013
vt 0.790365 0.000202
vt 0.866336 0.000470
vt 0.866336 0.264289
vt 0.860732 0.264289
vt 0.860733 0.000470
vt 0.314010 0.161428
vt 0.258853 0.942641
vt 0.320042 0.000202
vt 0.322157 0.033065
vt 0.289109 0.297891
vt 0.289676 0.297089
vt 0.290494 0.297958
vt 0.290362 0.299207
vt 0.332199 0.298605
vt 0.000000 0.000000
vt 1.000000 0.000000
vt 1.000000 1.000000
vt 0.000000 1.000000
vt 0.000000 0.000000
vt 1.000000 0.000000
vt 1.000000 1.000000
vt 0.000000 1.000000
vt 0.000000 0.000000
vt 1.000000 0.000000
vt 1.000000 1.000000
vt 0.000000 1.000000
vt 0.000000 0.000000
vt 1.000000 0.000000
vt 1.000000 1.000000
vt 0.000000 1.000000
vt 1.000000 0.000000
vt 1.000000 1.000000
vt 0.000000 0.000000
vt 0.000000 1.000000
vt 0.000000 0.000000
vt 1.000000 0.000000
vt 1.000000 1.000000
vt 0.000000 1.000000
vt 0.000000 0.000000
vt 1.000000 0.000000
vt 1.000000 1.000000
vt 0.000000 1.000000
vt 0.000000 0.000000
vt 1.000000 0.000000
vt 1.000000 1.000000
vt 0.000000 1.000000
vt 0.000000 0.000000
vt 1.000000 0.000000
vt 1.000000 1.000000
vt 0.000000 1.000000
vt 1.000000 0.000000
vt 1.000000 1.000000
vt 0.000000 0.000000
vt 0.000000 1.000000
vn -0.8435 0.5372 0.0000
vn 0.0000 0.5372 -0.8435
vn 0.8435 0.5372 0.0000
vn 0.0000 0.5372 0.8435
vn 0.0000 1.0000 0.0000
vn 0.0000 0.0000 1.0000
vn 1.0000 0.0000 0.0000
vn 0.0000 0.0000 -1.0000
vn -1.0000 0.0000 0.0000
vn 0.0000 0.4006 0.9163
vn 0.9163 0.4006 0.0000
vn 0.0000 0.4006 -0.9163
vn -0.9163 0.4006 0.0000
vn -0.0011 -0.5408 -0.8411
vn 0.0000 -1.0000 0.0000
vn -0.0012 -0.6249 0.7807
vn 0.7479 -0.6638 -0.0001
vn -0.7988 -0.6016 -0.0001
vn 0.8949 0.4464 0.0001
vn -0.8584 0.5130 0.0001
vn 0.0009 0.4720 -0.8816
vn 0.0007 0.3768 0.9263
vn 0.0005 0.3756 0.9268
vn 0.0009 0.4798 -0.8774
vn -0.0012 -0.6350 0.7725
vn -0.0007 -0.5391 -0.8422
vn -0.0010 -0.5308 -0.8475
vn 0.0007 0.3700 0.9290
vn 0.0006 0.4734 -0.8808
vn -0.0009 -0.6267 0.7793
vn -0.8584 0.5129 0.0001
vn -0.8584 0.5130 0.0000
vn 0.8948 0.4464 0.0001
vn 0.8948 0.4464 0.0000
vn -0.7987 -0.6017 -0.0001
vn -0.7987 -0.6017 -0.0000
vn 0.7480 -0.6637 -0.0001
vn 0.7480 -0.6637 -0.0000
vn -0.0009 -0.6333 0.7739
vn -0.0105 -0.6299 0.7766
vn 0.0006 0.4785 -0.8781
vn 0.0078 0.4759 -0.8795
vn -0.0007 -0.5325 -0.8464
vn -0.0089 -0.5358 -0.8443
vn 0.0005 0.3712 0.9285
vn 0.0061 0.3734 0.9277
vn -0.9898 -0.1428 0.0000
vn 0.9898 0.1428 0.0000
vn 0.1581 -0.9874 0.0000
vn -0.1581 0.9874 0.0000
vn -0.9408 0.3391 0.0000
vn 0.9408 -0.3391 0.0000
vn -0.3715 -0.9284 0.0000
vn 0.3715 0.9284 0.0000
usemtl Material.003
s off
f 13/1/1 2/2/1 4/3/1 14/4/1
f 14/4/2 4/3/2 8/5/2 15/6/2
f 15/6/3 8/5/3 6/7/3 16/8/3
f 16/8/4 6/7/4 2/2/4 13/1/4
f 8/5/5 4/3/5 2/2/5 6/7/5
f 5/9/6 12/10/6 9/11/6 1/12/6
f 7/13/7 11/14/7 12/15/7 5/16/7
f 3/17/8 10/18/8 11/19/8 7/20/8
f 1/21/9 9/22/9 10/23/9 3/24/9
f 12/25/10 16/8/10 13/1/10 9/26/10
f 11/19/11 15/6/11 16/8/11 12/25/11
f 10/18/12 14/4/12 15/6/12 11/19/12
f 9/26/13 13/1/13 14/4/13 10/18/13
f 68/27/9 60/28/9 20/29/9 26/30/9
f 49/31/8 47/32/8 24/33/8 27/34/8
f 66/35/7 64/36/7 22/37/7 28/38/7
f 41/39/6 40/40/6 18/41/6 25/42/6
f 46/43/14 33/44/14 30/45/14 44/46/14
f 80/47/5 59/48/5 18/41/5 40/40/5
f 39/49/6 41/39/6 25/42/6 17/50/6
f 61/51/7 66/35/7 28/38/7 21/52/7
f 52/53/8 49/31/8 27/34/8 23/54/8
f 57/55/9 68/27/9 26/30/9 19/56/9
f 84/57/15 71/58/15 32/59/15 50/60/15
f 56/61/16 35/62/16 31/63/16 55/64/16
f 75/65/17 36/66/17 29/67/17 69/68/17
f 73/69/18 34/70/18 32/59/18 71/58/18
f 61/51/19 21/52/19 34/70/19 73/69/19
f 57/55/20 19/56/20 36/66/20 75/65/20
f 52/53/21 23/54/21 35/62/21 56/61/21
f 39/49/22 17/50/22 33/44/22 46/43/22
f 97/71/23 39/49/23 46/43/23 103/72/23
f 19/56/24 37/73/24 45/74/24 36/66/24
f 36/66/25 45/74/25 43/75/25 29/67/25
f 70/76/15 78/77/15 44/46/15 30/45/15
f 19/56/8 26/30/8 42/78/8 37/73/8
f 97/71/6 90/79/6 41/39/6 39/49/6
f 111/80/5 80/47/5 40/40/5 88/81/5
f 103/72/26 46/43/26 44/46/26 101/82/26
f 90/83/6 88/84/6 40/85/6 41/86/6
f 26/30/8 20/29/8 38/87/8 42/78/8
f 28/38/6 22/37/6 53/88/6 54/89/6
f 34/70/27 51/90/27 50/60/27 32/59/27
f 64/36/5 82/91/5 53/88/5 22/37/5
f 21/52/6 28/38/6 54/89/6 48/92/6
f 21/52/28 48/92/28 51/90/28 34/70/28
f 85/93/29 52/53/29 56/61/29 93/94/29
f 93/94/30 56/61/30 55/64/30 91/95/30
f 107/96/15 84/57/15 50/60/15 102/97/15
f 85/93/8 100/98/8 49/31/8 52/53/8
f 100/98/8 96/99/8 47/32/8 49/31/8
f 91/95/15 55/64/15 83/100/15 105/101/15
f 108/102/6 78/77/6 114/103/6 118/104/6
f 24/33/5 47/32/5 81/105/5 63/106/5
f 63/106/5 81/105/5 82/91/5 64/36/5
f 95/107/5 38/87/5 79/108/5 109/109/5
f 109/109/5 79/108/5 80/47/5 111/80/5
f 29/67/15 43/75/15 77/110/15 69/68/15
f 69/68/15 77/110/15 78/77/15 70/76/15
f 17/50/31 58/111/31 76/112/31 33/44/31
f 58/111/32 57/55/32 75/65/32 76/112/32
f 23/54/33 62/113/33 74/114/33 35/62/33
f 62/113/34 61/51/34 73/69/34 74/114/34
f 35/62/35 74/114/35 72/115/35 31/63/35
f 74/114/36 73/69/36 71/58/36 72/115/36
f 33/44/37 76/112/37 70/76/37 30/45/37
f 76/112/38 75/65/38 69/68/38 70/76/38
f 55/64/15 31/63/15 72/115/15 83/100/15
f 83/100/15 72/115/15 71/58/15 84/57/15
f 17/50/9 25/42/9 67/116/9 58/111/9
f 58/111/9 67/116/9 68/27/9 57/55/9
f 23/54/7 27/34/7 65/117/7 62/113/7
f 62/113/7 65/117/7 66/35/7 61/51/7
f 38/87/5 20/29/5 60/28/5 79/108/5
f 79/108/5 60/28/5 59/48/5 80/47/5
f 27/34/7 24/33/7 63/106/7 65/117/7
f 65/117/7 63/106/7 64/36/7 66/35/7
f 25/42/9 18/41/9 59/48/9 67/116/9
f 67/116/9 59/48/9 60/28/9 68/27/9
f 81/105/5 110/118/5 112/119/5 82/91/5
f 110/118/5 109/109/5 111/80/5 112/119/5
f 47/32/5 96/99/5 110/118/5 81/105/5
f 96/99/5 95/107/5 109/109/5 110/118/5
f 106/120/7 108/102/7 118/104/7 117/121/7
f 106/120/15 105/101/15 107/96/15 108/102/15
f 43/75/15 92/122/15 106/120/15 77/110/15
f 92/122/15 91/95/15 105/101/15 106/120/15
f 42/78/8 38/87/8 95/107/8 99/123/8
f 99/123/8 95/107/8 96/99/8 100/98/8
f 37/73/8 42/78/8 99/123/8 86/124/8
f 86/124/8 99/123/8 100/98/8 85/93/8
f 78/77/15 108/102/15 101/82/15 44/46/15
f 108/102/15 107/96/15 102/97/15 101/82/15
f 45/74/39 94/125/39 92/122/39 43/75/39
f 94/125/40 93/94/40 91/95/40 92/122/40
f 37/73/41 86/124/41 94/125/41 45/74/41
f 86/124/42 85/93/42 93/94/42 94/125/42
f 54/126/6 53/127/6 87/128/6 89/129/6
f 89/130/6 87/131/6 88/132/6 90/133/6
f 51/90/43 104/134/43 102/97/43 50/60/43
f 104/134/44 103/72/44 101/82/44 102/97/44
f 82/91/5 112/119/5 87/135/5 53/88/5
f 112/119/5 111/80/5 88/81/5 87/135/5
f 48/92/6 54/89/6 89/136/6 98/137/6
f 98/137/6 89/136/6 90/79/6 97/71/6
f 48/92/45 98/137/45 104/134/45 51/90/45
f 98/137/46 97/71/46 103/72/46 104/134/46
f 119/138/15 115/139/15 116/140/15 120/141/15
f 113/142/15 117/121/15 118/104/15 114/103/15
f 83/100/7 84/57/7 116/140/7 115/139/7
f 107/96/9 105/101/9 119/138/9 120/141/9
f 84/57/6 107/96/6 120/141/6 116/140/6
f 105/101/8 83/100/8 115/139/8 119/138/8
f 78/77/9 77/110/9 113/142/9 114/103/9
f 77/110/8 106/120/8 117/121/8 113/142/8
f 121/143/47 122/144/47 124/145/47 123/146/47
f 123/147/8 124/148/8 128/149/8 127/150/8
f 127/151/48 128/152/48 126/153/48 125/154/48
f 125/155/6 126/156/6 122/157/6 121/158/6
f 123/147/49 127/159/49 125/160/49 121/158/49
f 128/161/50 124/148/50 122/157/50 126/162/50
f 129/163/51 130/164/51 132/165/51 131/166/51
f 131/167/8 132/168/8 136/169/8 135/170/8
f 135/171/52 136/172/52 134/173/52 133/174/52
f 133/175/6 134/176/6 130/177/6 129/178/6
f 131/167/53 135/179/53 133/180/53 129/178/53
f 136/181/54 132/168/54 130/177/54 134/182/54
